{"asset":{"version":"2.0","generator":"Blockbench 5.0.4 glTF exporter"},"scenes":[{"nodes":[5,7,9],"name":"blockbench_export"}],"scene":0,"nodes":[{"rotation":[0.05228614400929896,-0.043559608510925024,0.002282862348496242,0.997679060715675],"translation":[0,0.75,0],"name":"Head"},{"translation":[0,0.75,0],"name":"Body"},{"rotation":[0.08715574274765817,0,0,0.9961946980917455],"translation":[0.3125,0.625,0],"name":"Right Arm"},{"rotation":[-0.10452846326765346,0,0,0.9945218953682733],"translation":[-0.3125,0.625,0],"name":"Left Arm"},{"name":"Waist","children":[0,1,2,3]},{"translation":[0,0.75,0],"name":"Waist","mesh":0,"children":[4],"skin":0},{"rotation":[-0.09583115474787583,-0.0016727390282702394,0.01737205902003089,0.9952445947048578],"name":"Right Leg"},{"rotation":[-0.09583115474787583,-0.0016727390282702394,0.01737205902003089,0.9952445947048578],"translation":[0.11875,0.75,0],"name":"Right Leg","mesh":1,"children":[6],"skin":1},{"rotation":[0.08714246850588939,-0.0015210774457754552,-0.017385994761764084,0.9960429728140489],"name":"Left Leg"},{"rotation":[0.08714246850588939,-0.0015210774457754552,-0.017385994761764084,0.9960429728140489],"translation":[-0.11875,0.75,0],"name":"Left Leg","mesh":2,"children":[8],"skin":2}],"bufferViews":[{"buffer":0,"byteOffset":0,"byteLength":2304,"target":34962,"byteStride":12},{"buffer":0,"byteOffset":2304,"byteLength":2304,"target":34962,"byteStride":12},{"buffer":0,"byteOffset":4608,"byteLength":1536,"target":34962,"byteStride":8},{"buffer":0,"byteOffset":6144,"byteLength":1536,"target":34962,"byteStride":8},{"buffer":0,"byteOffset":7680,"byteLength":3072,"target":34962,"byteStride":16},{"buffer":0,"byteOffset":10752,"byteLength":576,"target":34963},{"buffer":0,"byteOffset":11328,"byteLength":576,"target":34962,"byteStride":12},{"buffer":0,"byteOffset":11904,"byteLength":576,"target":34962,"byteStride":12},{"buffer":0,"byteOffset":12480,"byteLength":384,"target":34962,"byteStride":8},{"buffer":0,"byteOffset":12864,"byteLength":384,"target":34962,"byteStride":8},{"buffer":0,"byteOffset":13248,"byteLength":768,"target":34962,"byteStride":16},{"buffer":0,"byteOffset":14016,"byteLength":144,"target":34963},{"buffer":0,"byteOffset":14160,"byteLength":576,"target":34962,"byteStride":12},{"buffer":0,"byteOffset":14736,"byteLength":576,"target":34962,"byteStride":12},{"buffer":0,"byteOffset":15312,"byteLength":384,"target":34962,"byteStride":8},{"buffer":0,"byteOffset":15696,"byteLength":384,"target":34962,"byteStride":8},{"buffer":0,"byteOffset":16080,"byteLength":768,"target":34962,"byteStride":16},{"buffer":0,"byteOffset":16848,"byteLength":144,"target":34963},{"buffer":0,"byteOffset":16992,"byteLength":320},{"buffer":0,"byteOffset":17312,"byteLength":64},{"buffer":0,"byteOffset":17376,"byteLength":64}],"buffers":[{"byteLength":17440,"uri":"data:application/octet-stream;base64,"}],"accessors":[{"bufferView":0,"componentType":5126,"count":192,"max":[0.515625,1.3077384233474731,0.3584769070148468],"min":[-0.515625,-0.030863387510180473,-0.3064115345478058],"type":"VEC3"},{"bufferView":1,"componentType":5126,"count":192,"max":[1,1,1],"min":[-1,-1,-1],"type":"VEC3"},{"bufferView":2,"componentType":5126,"count":192,"max":[0.999755859375,0.999755859375],"min":[0.000244140625,0.000244140625],"type":"VEC2"},{"bufferView":3,"componentType":5123,"count":192,"max":[0,4,0,0],"min":[0,1,0,0],"type":"VEC4"},{"bufferView":4,"componentType":5126,"count":192,"max":[0,1,0,0],"min":[0,1,0,0],"type":"VEC4"},{"bufferView":5,"componentType":5123,"count":288,"max":[191],"min":[0],"type":"SCALAR"},{"bufferView":6,"componentType":5126,"count":48,"max":[0.140625,0.015625,0.140625],"min":[-0.140625,-0.765625,-0.140625],"type":"VEC3"},{"bufferView":7,"componentType":5126,"count":48,"max":[1,1,1],"min":[-1,-1,-1],"type":"VEC3"},{"bufferView":8,"componentType":5126,"count":48,"max":[0.249755859375,0.749755859375],"min":[0.000244140625,0.250244140625],"type":"VEC2"},{"bufferView":9,"componentType":5123,"count":48,"max":[0,0,0,0],"min":[0,0,0,0],"type":"VEC4"},{"bufferView":10,"componentType":5126,"count":48,"max":[0,1,0,0],"min":[0,1,0,0],"type":"VEC4"},{"bufferView":11,"componentType":5123,"count":72,"max":[47],"min":[0],"type":"SCALAR"},{"bufferView":12,"componentType":5126,"count":48,"max":[0.140625,0.015625,0.140625],"min":[-0.140625,-0.765625,-0.140625],"type":"VEC3"},{"bufferView":13,"componentType":5126,"count":48,"max":[1,1,1],"min":[-1,-1,-1],"type":"VEC3"},{"bufferView":14,"componentType":5126,"count":48,"max":[0.499755859375,0.999755859375],"min":[0.000244140625,0.750244140625],"type":"VEC2"},{"bufferView":15,"componentType":5123,"count":48,"max":[0,0,0,0],"min":[0,0,0,0],"type":"VEC4"},{"bufferView":16,"componentType":5126,"count":48,"max":[0,1,0,0],"min":[0,1,0,0],"type":"VEC4"},{"bufferView":17,"componentType":5123,"count":72,"max":[47],"min":[0],"type":"SCALAR"},{"bufferView":18,"componentType":5126,"count":5,"max":[1,0,0,0,1.734723475976807e-18,1,0.2079116851091385,0,0.08715574443340302,0.1736481785774231,1,0,0.3125,0,0.10853011161088943,1],"min":[0.9961947202682495,-0.009110256098210812,-0.08667829632759094,0,0,0.9781476259231567,-0.1736481785774231,0,0,-0.2079116851091385,0.9781476259231567,0,-0.3125,-0.75,-0.1299448013305664,1],"type":"MAT4"},{"bufferView":19,"componentType":5126,"count":1,"max":[0.9993908405303955,-0.034258294850587845,-0.006659138016402721,0,0.03489949554204941,0.981029212474823,0.1906927525997162,0,-1.734723475976807e-18,-0.1908089965581894,0.9816271662712097,0,0,0,0,1],"min":[0.9993908405303955,-0.034258294850587845,-0.006659138016402721,0,0.03489949554204941,0.981029212474823,0.1906927525997162,0,-1.734723475976807e-18,-0.1908089965581894,0.9816271662712097,0,0,0,0,1],"type":"MAT4"},{"bufferView":20,"componentType":5126,"count":1,"max":[0.9993908405303955,0.034369293600320816,-0.0060602338053286076,0,-0.03489949554204941,0.984207808971405,-0.17354239523410797,0,-8.673617379884035e-19,0.1736481785774231,0.9848077297210693,0,0,0,0,1],"min":[0.9993908405303955,0.034369293600320816,-0.0060602338053286076,0,-0.03489949554204941,0.984207808971405,-0.17354239523410797,0,-8.673617379884035e-19,0.1736481785774231,0.9848077297210693,0,0,0,0,1],"type":"MAT4"}],"materials":[{"pbrMetallicRoughness":{"metallicFactor":0,"roughnessFactor":1,"baseColorTexture":{"index":0}},"alphaMode":"MASK","alphaCutoff":0.05,"doubleSided":true}],"textures":[{"sampler":0,"source":0}],"samplers":[{"magFilter":9728,"minFilter":9728,"wrapS":33071,"wrapT":33071}],"images":[{"mimeType":"image/png","uri":"data:image/png;base64,"}],"meshes":[{"primitives":[{"mode":4,"attributes":{"POSITION":0,"NORMAL":1,"TEXCOORD_0":2,"JOINTS_0":3,"WEIGHTS_0":4},"indices":5,"material":0}]},{"primitives":[{"mode":4,"attributes":{"POSITION":6,"NORMAL":7,"TEXCOORD_0":8,"JOINTS_0":9,"WEIGHTS_0":10},"indices":11,"material":0}]},{"primitives":[{"mode":4,"attributes":{"POSITION":12,"NORMAL":13,"TEXCOORD_0":14,"JOINTS_0":15,"WEIGHTS_0":16},"indices":17,"material":0}]}],"skins":[{"inverseBindMatrices":18,"joints":[4,0,1,2,3],"skeleton":4},{"inverseBindMatrices":19,"joints":[6],"skeleton":6},{"inverseBindMatrices":20,"joints":[8],"skeleton":8}]}